<svg xmlns="http://www.w3.org/2000/svg" viewBox="0 0 20 20" fill="none">

	<defs>
		<style>
			.sprite {display: none;}
			.sprite:target {display: inline;}
		</style>
	</defs>

	<g class="sprite" id="arrowtop">
		<path d="M3 13.5L10 6.5L17 13.5" stroke="#111111" stroke-width="1.5" stroke-linecap="round" stroke-linejoin="round"/>
	</g>

	<g class="sprite" id="arrowbottom">
		<path d="M17 6.5L10 13.5L3 6.5" stroke="#111111" stroke-width="1.5" stroke-linecap="round" stroke-linejoin="round"/>
	</g>

	<g class="sprite" id="arrowleft">
		<path d="M13 3L6 10L13 17" stroke="#111111" stroke-width="1.5" stroke-linecap="round" stroke-linejoin="round"/>
	</g>

	<g class="sprite" id="arrowright">
		<path d="M7 3L14 10L7 17" stroke="#111111" stroke-width="1.5" stroke-linecap="round" stroke-linejoin="round"/>
	</g>

	<g class="sprite" id="plus">
		<path d="M3 10H17" stroke="#111111" stroke-width="1.5" stroke-linecap="round"/>
		<path d="M10 3V17" stroke="#111111" stroke-width="1.5" stroke-linecap="round"/>
	</g>

	<g class="sprite" id="close">
		<path d="M2 2L18 18" stroke="#111111" stroke-width="1.5" stroke-linecap="round"/>
		<path d="M18 2L2 18" stroke="#111111" stroke-width="1.5" stroke-linecap="round"/>
	</g>

	<g class="sprite" id="search">
		<circle cx="9.5" cy="9.5" r="6.75" stroke="#111111" stroke-width="1.5"/>
		<path d="M14.5 14.5L17.5 17.5" stroke="#111111" stroke-width="1.5" stroke-linecap="round"/>
	</g>

	<g class="sprite" id="check">
		<path d="M3 9.85113L8.33101 15L17 5" stroke="#111111" stroke-width="2" stroke-linecap="round" stroke-linejoin="round"/>
	</g>

	<g class="sprite" id="preview">
		<path fill-rule="evenodd" clip-rule="evenodd" d="M3.72123 7.13544C3.13011 7.74402 2.67731 8.33925 2.36522 8.795C2.19435 9.04452 2.06449 9.25394 1.97615 9.40327C1.93195 9.47798 1.89806 9.53779 1.87454 9.58022C1.86277 9.60144 1.8536 9.61832 1.84702 9.63057L1.83909 9.64541L1.83659 9.65016L1.8357 9.65185L1.83535 9.65252C1.8352 9.65281 1.83506 9.65308 2.5 10L1.83506 9.65308C1.72165 9.87045 1.72165 10.1295 1.83506 10.3469L2.5 10C1.83506 10.3469 1.8352 10.3472 1.83535 10.3475L1.8357 10.3482L1.83659 10.3498L1.83909 10.3546L1.84702 10.3694C1.8536 10.3817 1.86277 10.3986 1.87454 10.4198C1.89806 10.4622 1.93195 10.522 1.97615 10.5967C2.06449 10.7461 2.19435 10.9555 2.36522 11.205C2.70609 11.7028 3.21483 12.367 3.88831 13.0332C5.2287 14.3592 7.28249 15.75 10 15.75C10.7353 15.75 11.422 15.6482 12.0591 15.4734L10.7866 14.2008C10.5318 14.2329 10.2696 14.25 10 14.25C7.82621 14.25 6.13 13.1408 4.94322 11.9668C4.35311 11.383 3.90396 10.7972 3.60285 10.3575C3.51034 10.2224 3.43225 10.1018 3.36875 10C3.43225 9.89825 3.51034 9.7776 3.60285 9.6425C3.87592 9.24374 4.27073 8.72481 4.78201 8.19623L3.72123 7.13544ZM12.9412 13.527C13.767 13.1053 14.4734 12.5439 15.0568 11.9668C15.6469 11.383 16.096 10.7972 16.3972 10.3575C16.4897 10.2224 16.5678 10.1018 16.6312 10C16.5678 9.89825 16.4897 9.7776 16.3972 9.6425C16.096 9.20279 15.6469 8.61695 15.0568 8.03319C13.87 6.85917 12.1738 5.75 10 5.75C8.56081 5.75 7.33096 6.23618 6.31969 6.90548L5.24103 5.82682C6.48239 4.94819 8.0746 4.25 10 4.25C12.7175 4.25 14.7713 5.64083 16.1117 6.96681C16.7852 7.63305 17.2939 8.29721 17.6348 8.795C17.8056 9.04452 17.9355 9.25394 18.0238 9.40327C18.0681 9.47798 18.1019 9.53779 18.1255 9.58022C18.1372 9.60144 18.1464 9.61832 18.153 9.63057L18.1609 9.64541L18.1634 9.65016L18.1643 9.65185L18.1646 9.65252C18.1648 9.65281 18.1649 9.65308 17.5 10C18.1649 10.3469 18.1648 10.3472 18.1646 10.3475L18.1643 10.3482L18.1634 10.3498L18.1609 10.3546L18.153 10.3694C18.1464 10.3817 18.1372 10.3986 18.1255 10.4198C18.1019 10.4622 18.0681 10.522 18.0238 10.5967C17.9355 10.7461 17.8056 10.9555 17.6348 11.205C17.2939 11.7028 16.7852 12.367 16.1117 13.0332C15.5481 13.5907 14.8584 14.1597 14.0462 14.632L12.9412 13.527ZM17.5 10L18.1649 9.65308C18.2784 9.87045 18.2784 10.1295 18.1649 10.3469L17.5 10Z" fill="black"/>
		<path fill-rule="evenodd" clip-rule="evenodd" d="M6.52435 9.58501C6.50827 9.7211 6.5 9.85958 6.5 10C6.5 11.933 8.067 13.5 10 13.5C10.1404 13.5 10.2789 13.4917 10.415 13.4757L6.52435 9.58501ZM11.9605 12.8998C12.8895 12.2705 13.5 11.2066 13.5 10C13.5 8.067 11.933 6.5 10 6.5C8.79343 6.5 7.72947 7.11053 7.10018 8.03952L11.9605 12.8998Z" fill="black"/>
		<path d="M4 4L16 16" stroke="#111111" stroke-width="1.5" stroke-linecap="round"/>
	</g>

	<g class="sprite" id="previewon">
		<path d="M17.5 10C17.5 10 14.8913 15 10 15C5.1087 15 2.5 10 2.5 10C2.5 10 5.1087 5 10 5C14.8913 5 17.5 10 17.5 10Z" stroke="black" stroke-width="1.5" stroke-linecap="round" stroke-linejoin="round"/>
		<path d="M10 13.5C11.933 13.5 13.5 11.933 13.5 10C13.5 8.067 11.933 6.5 10 6.5C8.067 6.5 6.5 8.067 6.5 10C6.5 11.933 8.067 13.5 10 13.5Z" fill="#111111"/>
	</g>

	<g class="sprite" id="prev">
		<path d="M13 3L6 10L13 17" stroke="#092060" stroke-width="1.5" stroke-linecap="round" stroke-linejoin="round"/>
	</g>

	<g class="sprite" id="pagearrowleft">
		<path d="M18.5 12H2L8 6" stroke="#091B4D" stroke-width="1.5" stroke-linecap="round" stroke-linejoin="round"/>
	</g>

	<g class="sprite" id="pagearrowright">
		<path d="M1.5 12H18L12 6" stroke="#091B4D" stroke-width="1.5" stroke-linecap="round" stroke-linejoin="round"/>
	</g>

	<g class="sprite" id="logout">
		<path id="primary" d="M10 2V11" stroke="#091B4D" stroke-width="1.5" stroke-linecap="round" stroke-linejoin="round"/>
		<path id="primary_2" d="M14.9525 6C15.9307 6.98362 16.5966 8.23645 16.8661 9.60013C17.1355 10.9638 16.9965 12.3771 16.4664 13.6614C15.9364 14.9457 15.0392 16.0434 13.8882 16.8156C12.7372 17.5878 11.3841 18 10 18C8.61586 18 7.26279 17.5878 6.11182 16.8156C4.96084 16.0434 4.06363 14.9457 3.53359 13.6614C3.00355 12.3771 2.86447 10.9638 3.13394 9.60013C3.4034 8.23645 4.06931 6.98362 5.0475 6" stroke="#091B4D" stroke-width="1.5" stroke-linecap="round" stroke-linejoin="round"/>
	</g>

	<g class="sprite" id="modify">
		<path d="M17 11C17 14.2998 17 14.9497 15.9749 15.9749C14.9497 17 13.2998 17 10 17C6.70017 17 5.05025 17 4.02513 15.9749C3 14.9497 3 13.2998 3 10C3 6.70017 3 5.05025 4.02513 4.02513C5.05025 3 5.70017 3 9 3" stroke="#596584" stroke-width="1.5" stroke-linecap="round"/>
		<path d="M13.6435 3.57589L13.18 4.03933L8.91941 8.29995C8.63083 8.58853 8.48654 8.73282 8.36245 8.89192C8.21607 9.07959 8.09057 9.28265 7.98817 9.49751C7.90137 9.67965 7.83684 9.87324 7.70778 10.2604L7.29458 11.5L7.02722 12.3021C6.96371 12.4926 7.0133 12.7027 7.15532 12.8447C7.29733 12.9867 7.50739 13.0363 7.69792 12.9728L8.5 12.7054L9.73959 12.2922L9.7396 12.2922C10.1268 12.1632 10.3203 12.0986 10.5025 12.0118C10.7173 11.9094 10.9204 11.7839 11.1081 11.6376C11.2672 11.5135 11.4115 11.3692 11.7 11.0806L11.7001 11.0806L15.9607 6.81997L16.4241 6.35653C17.192 5.58868 17.192 4.34374 16.4241 3.57589C15.6563 2.80804 14.4113 2.80804 13.6435 3.57589Z" stroke="#596584" stroke-width="1.5"/>
		<path d="M13 4C13 4 13.0625 5.0625 14 6C14.9375 6.9375 16 7 16 7" stroke="#596584" stroke-width="1.5"/>
	</g>

	<g class="sprite" id="date">
		<path d="M4.44423 13.6402V13.5714M8.44423 13.6402V13.5714M8.44423 9.91428V9.84553M11.9998 9.91428V9.84553M1.77756 6.25712H14.222M3.38603 1V2.37159M12.4442 1V2.37142M12.4442 2.37142H3.55534C2.08258 2.37142 0.888672 3.59943 0.888672 5.11426V14.2572C0.888672 15.772 2.08258 17 3.55534 17H12.4442C13.917 17 15.1109 15.772 15.1109 14.2572L15.1109 5.11426C15.1109 3.59943 13.917 2.37142 12.4442 2.37142Z" stroke="#091B4D" stroke-width="1.5" stroke-linecap="round" stroke-linejoin="round"/>
	</g>

	<g class="sprite" id="idcard">
		<rect x="2" y="3.5" width="12" height="9" rx="0.857671" stroke="#092060" stroke-linecap="round" stroke-linejoin="round"/>
		<circle cx="5.75" cy="6.58398" r="1.25" stroke="#092060"/>
		<path d="M9.16667 12.3333C9.09557 10.7912 8.03341 9 5.83333 9C3.63326 9 2.5711 10.7912 2.5 12.3333" stroke="#092060" stroke-linecap="round"/>
		<path d="M9 6.5H11" stroke="#092060" stroke-linecap="round"/>
		<path d="M9 8.5H12.5" stroke="#092060" stroke-linecap="round"/>
	</g>

	<g class="sprite" id="clock">
		<rect x="1.41699" y="1.41699" width="15.1667" height="15.1667" rx="7.58333" stroke="black" stroke-width="1.5"/>
		<path d="M9 4.83398V9.59589H13.1667" stroke="black" stroke-width="1.5" stroke-linecap="round" stroke-linejoin="round"/>
	</g>

	<g class="sprite" id="refresh">
		<path d="M16.7377 12.1875C15.847 14.9822 13.2959 17 10.2879 17C6.53904 17 3.5 13.866 3.5 10C3.5 6.13401 6.53904 3 10.2879 3C12.8004 3 14.994 4.4077 16.1677 6.5M14.1061 7.375H17.5V3.875" stroke="#002394" stroke-width="1.5" stroke-linecap="round" stroke-linejoin="round"/>
	</g>

	<g class="sprite" id="notice">
		<path id="Vector 7335" d="M15.5 6.5L18.5 4.5" stroke="black" stroke-width="1.5"/>
		<path id="Vector 7336" d="M15.5 11L18.5 13" stroke="black" stroke-width="1.5"/>
		<path id="Rectangle 1854970" d="M3 12L4.22135 16.2747C4.34401 16.704 4.73639 17 5.18287 17H6.67427C7.33865 17 7.81831 16.3641 7.63579 15.7253L6.57143 12" stroke="black" stroke-width="1.5"/>
		<path id="primary" d="M13 2V16L9 12H3C2.73478 12 2.48043 11.8946 2.29289 11.7071C2.10536 11.5196 2 11.2652 2 11V7C2 6.73478 2.10536 6.48043 2.29289 6.29289C2.48043 6.10536 2.73478 6 3 6H9L13 2Z" stroke="black" stroke-width="1.5" stroke-linecap="round" stroke-linejoin="round"/>
	</g>
		<g class="sprite" id="point">
		<circle cx="10" cy="10" r="7.25" fill="white" stroke="#596584" stroke-width="1.5"/>
		<path d="M7.65527 14V6.22266H10.7061C12.4731 6.22266 13.4883 7.31299 13.4883 8.84375C13.4883 10.396 12.457 11.4648 10.6631 11.4648H9.2666V14H7.65527ZM9.2666 10.165H10.4053C11.3613 10.165 11.8286 9.62793 11.8232 8.84375C11.8286 8.07031 11.3613 7.54932 10.4053 7.54395H9.2666V10.165Z" fill="#596584"/>
	</g>
	<g class="sprite" id="voucher">
		<g id="discount-square">
			<path id="primary" d="M18 5H2M18 5H14.4444M18 5V7.75C17.3333 8 16 8.9 16 10.5C16 11 16.4 12.25 18 13.25V16M2 5H5.55556M2 5V7.75C3.6 8.35 4 9.83333 4 10.5C4 12.1 2.66667 13 2 13.25V16M2 16H18M2 16H5.55556M18 16H14.4444" stroke="#596584" stroke-width="1.5" stroke-linecap="round" stroke-linejoin="round"/>
				<g id="HK">
					<path id="Vector" d="M12.1657 10.895L11.6107 11.535V12.45H10.7007V8.375H11.6107V10.295L13.2407 8.375H14.3557L12.7557 10.22L14.4407 12.45H13.3057L12.1657 10.895Z" fill="#596584"/>
					<path id="Vector_2" d="M9.97986 8.375V12.45H9.06986V10.795H7.26986V12.45H6.35986V8.375H7.26986V9.99H9.06986V8.375H9.97986Z" fill="#596584"/>
			</g>
		</g>
	</g>

	<g class="sprite" id="coupon">
		<path d="M18 5H2M18 5H14.4444M18 5V7.75C17.3333 8 16 8.9 16 10.5C16 11 16.4 12.25 18 13.25V16M2 5H5.55556M2 5V7.75C3.6 8.35 4 9.83333 4 10.5C4 12.1 2.66667 13 2 13.25V16M2 16H18M2 16H5.55556M18 16H14.4444" stroke="#596584" stroke-width="1.5" stroke-linecap="round" stroke-linejoin="round"/>
		<path d="M8.31703 12.1281L11.6789 8.81675M8.01372 8.51365L8 8.5M12 12.5L11.9863 12.4864" stroke="#596584" stroke-width="1.5" stroke-linecap="round" stroke-linejoin="round"/>
	</g>

	<g class="sprite" id="vip">
		<path d="M11.3494 7.14235C11.3494 7.34976 11.3052 7.53934 11.2168 7.7111C11.1314 7.87961 11.0004 8.01572 10.8237 8.11943C10.6499 8.21989 10.4364 8.27012 10.1831 8.27012H9.75456V9.42705H8.88867V6H10.1831C10.4334 6 10.6455 6.04861 10.8192 6.14583C10.996 6.24305 11.1285 6.37754 11.2168 6.5493C11.3052 6.72106 11.3494 6.91874 11.3494 7.14235ZM10.0991 7.51179C10.3436 7.51179 10.4658 7.38865 10.4658 7.14235C10.4658 6.89282 10.3436 6.76805 10.0991 6.76805H9.75456V7.51179H10.0991Z" fill="#596584"/>
		<path d="M8.39616 6V9.42705H7.53027V6H8.39616Z" fill="#596584"/>
		<path d="M7.26033 6L6.18681 9.42705H5.07794L4 6H4.92774L5.63458 8.47428L6.33701 6H7.26033Z" fill="#596584"/>
		<path d="M17.1111 16H2.88889C2.65314 16 2.42705 15.9097 2.26035 15.7489C2.09365 15.5882 2 15.3702 2 15.1429V4.85714C2 4.62981 2.09365 4.4118 2.26035 4.25105C2.42705 4.09031 2.65314 4 2.88889 4H17.1111C17.3469 4 17.573 4.09031 17.7397 4.25105C17.9064 4.4118 18 4.62981 18 4.85714V15.1429C18 15.3702 17.9064 15.5882 17.7397 15.7489C17.573 15.9097 17.3469 16 17.1111 16Z" stroke="#596584" stroke-width="1.5" stroke-linecap="round" stroke-linejoin="round"/>
		<path d="M17.9019 4.59619L12.3743 9.56295C11.0874 10.7193 11.0426 12.7214 12.2765 13.9341L14.3898 16.011" stroke="#596584" stroke-width="1.5"/>
	</g>

	<g class="sprite" id="hole2">
		<path fill-rule="evenodd" clip-rule="evenodd" d="M7.46241 11.5598C7.46241 12.7766 6.27878 13.7629 4.81871 13.7629C3.46063 13.7629 2.34173 12.9096 2.19203 11.8112C1.43643 12.321 1 12.9228 1 13.5674C1 15.406 4.55087 16.8965 8.9311 16.8965C13.3113 16.8965 16.8622 15.406 16.8622 13.5674C16.8622 11.7288 13.3113 10.2383 8.9311 10.2383C8.2712 10.2383 7.63013 10.2721 7.01718 10.3359C7.2984 10.6859 7.46241 11.1069 7.46241 11.5598ZM13.15 11.9971C12.2387 11.9971 11.5 12.7358 11.5 13.6471C11.5 14.5583 12.2387 15.2971 13.15 15.2971C14.0613 15.2971 14.8 14.5583 14.8 13.6471C14.8 12.7358 14.0613 11.9971 13.15 11.9971Z" fill="white"/>
		<path d="M2.19203 11.8112L2.68745 11.7437C2.66411 11.5725 2.55403 11.4255 2.39632 11.3549C2.23861 11.2843 2.05562 11.3001 1.91238 11.3967L2.19203 11.8112ZM7.01718 10.3359L6.96546 9.83854C6.78338 9.85748 6.6262 9.97441 6.55572 10.1434C6.48524 10.3123 6.51273 10.5063 6.62738 10.649L7.01718 10.3359ZM4.81871 14.2629C6.46569 14.2629 7.96241 13.1342 7.96241 11.5598H6.96241C6.96241 12.4189 6.09187 13.2629 4.81871 13.2629V14.2629ZM1.69661 11.8787C1.88863 13.2876 3.27962 14.2629 4.81871 14.2629V13.2629C3.64164 13.2629 2.79482 12.5315 2.68745 11.7437L1.69661 11.8787ZM1.5 13.5674C1.5 13.1667 1.77367 12.6966 2.47167 12.2257L1.91238 11.3967C1.09919 11.9454 0.5 12.6789 0.5 13.5674H1.5ZM8.9311 16.3965C6.79091 16.3965 4.87686 16.0314 3.51648 15.4604C2.83526 15.1744 2.31644 14.8467 1.97547 14.5083C1.63636 14.1718 1.5 13.8542 1.5 13.5674H0.5C0.5 14.1999 0.807496 14.7581 1.27106 15.2181C1.73276 15.6763 2.37542 16.0659 3.12945 16.3824C4.63956 17.0163 6.69106 17.3965 8.9311 17.3965V16.3965ZM16.3622 13.5674C16.3622 13.8542 16.2258 14.1718 15.8867 14.5083C15.5458 14.8467 15.0269 15.1744 14.3457 15.4604C12.9853 16.0314 11.0713 16.3965 8.9311 16.3965V17.3965C11.1711 17.3965 13.2226 17.0163 14.7328 16.3824C15.4868 16.0659 16.1294 15.6763 16.5911 15.2181C17.0547 14.7581 17.3622 14.1999 17.3622 13.5674H16.3622ZM8.9311 10.7383C11.0713 10.7383 12.9853 11.1034 14.3457 11.6744C15.0269 11.9603 15.5458 12.2881 15.8867 12.6264C16.2258 12.963 16.3622 13.2806 16.3622 13.5674H17.3622C17.3622 12.9349 17.0547 12.3767 16.5911 11.9166C16.1294 11.4585 15.4868 11.0688 14.7328 10.7523C13.2226 10.1184 11.1711 9.73828 8.9311 9.73828V10.7383ZM7.06891 10.8332C7.66438 10.7712 8.28819 10.7383 8.9311 10.7383V9.73828C8.25421 9.73828 7.59587 9.77298 6.96546 9.83854L7.06891 10.8332ZM7.96241 11.5598C7.96241 10.9818 7.75214 10.4524 7.40699 10.0227L6.62738 10.649C6.84467 10.9195 6.96241 11.2321 6.96241 11.5598H7.96241ZM12 13.6471C12 13.0119 12.5149 12.4971 13.15 12.4971V11.4971C11.9626 11.4971 11 12.4597 11 13.6471H12ZM13.15 14.7971C12.5149 14.7971 12 14.2822 12 13.6471H11C11 14.8345 11.9626 15.7971 13.15 15.7971V14.7971ZM14.3 13.6471C14.3 14.2822 13.7851 14.7971 13.15 14.7971V15.7971C14.3374 15.7971 15.3 14.8345 15.3 13.6471H14.3ZM13.15 12.4971C13.7851 12.4971 14.3 13.0119 14.3 13.6471H15.3C15.3 12.4597 14.3374 11.4971 13.15 11.4971V12.4971Z" fill="white"/>
		<path d="M4.78931 11.649L4.78931 1.07422" stroke="white" stroke-width="1.5" stroke-miterlimit="10" stroke-linecap="round" stroke-linejoin="round"/>
		<path d="M4.78931 0.898438L11.4162 3.82413L4.78931 6.71458V0.898438Z" fill="white" stroke="white" stroke-width="1.5" stroke-miterlimit="10" stroke-linecap="round" stroke-linejoin="round"/>
	</g>

	<g class="sprite" id="cash">
		<circle cx="10" cy="10" r="9" fill="#092060"/>
		<path d="M14.3133 7C14.4945 7 14.6519 7.06586 14.7854 7.19759C14.9285 7.32054 15 7.483 15 7.68498C15 7.72889 14.9952 7.7728 14.9857 7.81671C14.9762 7.86062 14.9619 7.90014 14.9428 7.93527L12.7539 13.5732C12.6967 13.7225 12.5966 13.8367 12.4535 13.9157C12.3104 13.9859 12.1626 14.0123 12.01 13.9947C11.7334 13.9772 11.5284 13.8367 11.3949 13.5732L9.77826 9.62138L10.1073 9.64772L8.61946 13.5732C8.48593 13.8367 8.28088 13.9772 8.00429 13.9947C7.86123 14.0123 7.7134 13.9859 7.5608 13.9157C7.41774 13.8367 7.3176 13.7225 7.26037 13.5732L5.05722 7.93527C5.01907 7.85623 5 7.7728 5 7.68498C5 7.50056 5.06199 7.34249 5.18598 7.21076C5.3195 7.07025 5.49595 7 5.71531 7C5.86791 7 6.00143 7.03513 6.11588 7.10538C6.23987 7.17564 6.3257 7.28102 6.37339 7.42153L8.20458 12.1769L7.87554 12.1505L9.36338 8.55438C9.48736 8.28215 9.70672 8.14603 10.0215 8.14603C10.1931 8.14603 10.3267 8.18116 10.422 8.25141C10.5174 8.32167 10.5937 8.42266 10.6509 8.55438L12.1674 12.1637L11.7811 12.2032L13.6266 7.42153C13.722 7.14051 13.9509 7 14.3133 7Z" fill="white"/>
		<path d="M4.5 10.5H6.5" stroke="white" stroke-linecap="round"/>
		<path d="M13 10.5H15" stroke="white" stroke-linecap="round"/>
	</g>

	<g class="sprite" id="arrowright2">
		<path d="M1.5 12H18L12 6" stroke="black" stroke-width="1.5" stroke-linecap="round" stroke-linejoin="round"/>
	</g>

	<g class="sprite" id="info">
		<circle cx="10" cy="10" r="8" fill="#4673FF" stroke="#4673FF" stroke-width="1.5"/>
		<path d="M10 6V7M10 9.5V14" stroke="white" stroke-width="1.5" stroke-linecap="round" stroke-linejoin="round"/>
	</g>

	<g class="sprite" id="gift">
		<path d="M18.3335 5H2.3335M18.3335 5H14.7779M18.3335 5V7.75C17.6668 8 16.3335 8.9 16.3335 10.5C16.3335 11 16.7335 12.25 18.3335 13.25V16M2.3335 5H5.88905M2.3335 5V7.75C3.9335 8.35 4.3335 9.83333 4.3335 10.5C4.3335 12.1 3.00016 13 2.3335 13.25V16M2.3335 16H18.3335M2.3335 16H5.88905M18.3335 16H14.7779" stroke="white" stroke-width="1.5" stroke-linecap="round" stroke-linejoin="round"/>
		<path d="M10.9333 11C10.9333 12.3255 12.0079 13.4 13.3333 13.4" stroke="white" stroke-width="1.5" stroke-linecap="round"/>
		<path d="M9.7335 11C9.7335 12.3255 8.65898 13.4 7.3335 13.4" stroke="white" stroke-width="1.5" stroke-linecap="round"/>
		<path d="M10.3335 9.821C10.3335 8.92707 10.9419 8.14786 11.8091 7.93105C12.7714 7.69049 13.643 8.56209 13.4024 9.52432C13.1856 10.3916 12.4064 11 11.5124 11H10.3335V9.821Z" stroke="white" stroke-width="1.5"/>
		<path d="M10.3335 9.821C10.3335 8.92707 9.72506 8.14786 8.85782 7.93105C7.89558 7.69049 7.02399 8.56209 7.26455 9.52432C7.48135 10.3916 8.26057 11 9.1545 11H10.3335V9.821Z" stroke="white" stroke-width="1.5"/>
	</g>

	<g class="sprite" id="benefit">
		<path d="M18 5H2M18 5H14.4444M18 5V7.75C17.3333 8 16 8.9 16 10.5C16 11 16.4 12.25 18 13.25V16M2 5H5.55556M2 5V7.75C3.6 8.35 4 9.83333 4 10.5C4 12.1 2.66667 13 2 13.25V16M2 16H18M2 16H5.55556M18 16H14.4444" stroke="white" stroke-width="1.5" stroke-linecap="round" stroke-linejoin="round"/>
		<path fill-rule="evenodd" clip-rule="evenodd" d="M10.9245 8.7575L10.4425 7.84123C10.2551 7.48493 9.74491 7.48493 9.55749 7.84123L9.0755 8.7575C9.01019 8.88593 8.91566 8.99725 8.7995 9.0825C8.68278 9.16819 8.54772 9.22554 8.405 9.25L7.32982 9.4608C6.95663 9.53397 6.7985 9.98047 7.04246 10.2722L7.83 11.214C8.01189 11.4133 8.09771 11.6821 8.065 11.95L7.92454 13.0881C7.87601 13.4813 8.28229 13.7721 8.63882 13.5993L9.566 13.15C9.70131 13.0845 9.84966 13.0503 10 13.05C10.1411 13.0504 10.28 13.0847 10.405 13.15L11.3911 13.5881C11.7467 13.7461 12.1385 13.4553 12.0903 13.0692L11.947 11.922C11.915 11.6547 12.001 11.3868 12.1825 11.188L12.9531 10.2729C13.1986 9.98141 13.0408 9.53347 12.6669 9.46016L11.595 9.25C11.4521 9.22561 11.3169 9.16826 11.2 9.0825C11.084 8.99719 10.9897 8.88588 10.9245 8.7575Z" fill="white"/>
	</g>

	<g class="sprite" id="moneychange">
		<path d="M5.5 11H14.5V13H10.5V16L5.5 11ZM10.5 7V4L15.5 8.99997H6.5V7H10.5Z" fill="#091B4D"/>
		<circle cx="10.5" cy="10" r="8.25" stroke="#091B4D" stroke-width="1.5"/>
	</g>

	<g class="sprite" id="price">
		<circle cx="10" cy="10" r="9" fill="#092060"/>
		<path d="M14.3133 7C14.4945 7 14.6519 7.06586 14.7854 7.19759C14.9285 7.32054 15 7.483 15 7.68498C15 7.72889 14.9952 7.7728 14.9857 7.81671C14.9762 7.86062 14.9619 7.90014 14.9428 7.93527L12.7539 13.5732C12.6967 13.7225 12.5966 13.8367 12.4535 13.9157C12.3104 13.9859 12.1626 14.0123 12.01 13.9947C11.7334 13.9772 11.5284 13.8367 11.3949 13.5732L9.77826 9.62138L10.1073 9.64772L8.61946 13.5732C8.48593 13.8367 8.28088 13.9772 8.00429 13.9947C7.86123 14.0123 7.7134 13.9859 7.5608 13.9157C7.41774 13.8367 7.3176 13.7225 7.26037 13.5732L5.05722 7.93527C5.01907 7.85623 5 7.7728 5 7.68498C5 7.50056 5.06199 7.34249 5.18598 7.21076C5.3195 7.07025 5.49595 7 5.71531 7C5.86791 7 6.00143 7.03513 6.11588 7.10538C6.23987 7.17564 6.3257 7.28102 6.37339 7.42153L8.20458 12.1769L7.87554 12.1505L9.36338 8.55438C9.48736 8.28215 9.70672 8.14603 10.0215 8.14603C10.1931 8.14603 10.3267 8.18116 10.422 8.25141C10.5174 8.32167 10.5937 8.42266 10.6509 8.55438L12.1674 12.1637L11.7811 12.2032L13.6266 7.42153C13.722 7.14051 13.9509 7 14.3133 7Z" fill="white"/>
		<path d="M4.5 10.5H6.5" stroke="white" stroke-linecap="round"/>
		<path d="M13 10.5H15" stroke="white" stroke-linecap="round"/>
	</g>

	<g class="sprite" id="form">
		<path d="M15 15V16C15 17.1046 14.1046 18 13 18H5C3.89543 18 3 17.1046 3 16V4C3 2.89543 3.89543 2 5 2H13C14.1046 2 15 2.89543 15 4V9" stroke="#B7C0DA" stroke-width="1.5"/>
		<path d="M17.2763 5.43973L11.4337 11.2721C11.3519 11.3545 11.2872 11.4523 11.2433 11.5598C11.1993 11.6673 11.1771 11.7824 11.1777 11.8985V13.1162C11.1777 13.3502 11.2707 13.5746 11.4362 13.7401C11.6018 13.9056 11.8262 13.9985 12.0603 13.9985H13.2871C13.4039 13.9981 13.5194 13.9744 13.6269 13.929C13.7345 13.8835 13.832 13.8172 13.9137 13.7338L19.7475 7.91031C19.9092 7.74538 19.9998 7.52362 19.9998 7.29267C19.9998 7.06171 19.9092 6.83996 19.7475 6.67502L18.5119 5.43973C18.3469 5.27806 18.1251 5.1875 17.8941 5.1875C17.6631 5.1875 17.4413 5.27806 17.2763 5.43973Z" fill="#092060"/>
		<rect x="6" y="2" width="6" height="2" rx="1" fill="#B7C0DA"/>
		<path d="M6 6.5H11" stroke="#B7C0DA" stroke-width="1.5" stroke-linecap="round"/>
		<path d="M6 10H9" stroke="#B7C0DA" stroke-width="1.5" stroke-linecap="round"/>
	</g>
</svg>