<svg xmlns="http://www.w3.org/2000/svg" viewBox="0 0 12 12" fill="none">

	<defs>
		<style>
			.sprite {display: none;}
			.sprite:target {display: inline;}
		</style>
	</defs>

	<g class="sprite" id="arrowright">
		<path d="M4 10L8 6L4 2" stroke="#949494" stroke-linecap="round" stroke-linejoin="round"/>
	</g>

	<g class="sprite" id="phone">
		<path d="M9.71857 9.46953C9.71857 9.46953 9.17545 10.003 9.04235 10.1594C8.82553 10.3907 8.57007 10.5 8.23518 10.5C8.20298 10.5 8.16863 10.5 8.13643 10.4979C7.49885 10.4572 6.90635 10.2086 6.46198 9.99655C5.24693 9.40955 4.18 8.57617 3.2934 7.51999C2.56136 6.63949 2.07191 5.8254 1.74775 4.95132C1.54811 4.41788 1.47512 4.00226 1.50732 3.61021C1.52879 3.35956 1.62539 3.15175 1.80357 2.97393L2.5356 2.24339C2.64079 2.14485 2.75242 2.09129 2.86191 2.09129C2.99715 2.09129 3.10663 2.1727 3.17533 2.24125C3.17748 2.24339 3.17962 2.24554 3.18177 2.24768C3.31272 2.36979 3.43723 2.49619 3.56818 2.63116C3.63473 2.69971 3.70343 2.76827 3.77212 2.83897L4.35818 3.42383C4.58573 3.65092 4.58573 3.86087 4.35818 4.08795C4.29592 4.15008 4.23582 4.21221 4.17356 4.2722C3.99323 4.45644 4.13489 4.31507 3.94813 4.48217C3.94383 4.48646 3.93954 4.4886 3.93739 4.49289C3.75277 4.67713 3.78712 4.85708 3.82576 4.9792C3.82791 4.98563 3.83005 4.99205 3.8322 4.99848C3.98462 5.36696 4.19929 5.71402 4.5256 6.1275L4.52774 6.12964C5.12024 6.85804 5.74494 7.42576 6.43404 7.86065C6.52206 7.91636 6.61222 7.96135 6.69809 8.00419C6.77537 8.04275 6.84836 8.07917 6.91062 8.11774C6.9192 8.12202 6.92779 8.12845 6.93638 8.13273C7.00937 8.16915 7.07806 8.18629 7.1489 8.18629C7.32708 8.18629 7.43871 8.07489 7.47521 8.03847L7.896 7.61854C7.96898 7.5457 8.08491 7.45787 8.22015 7.45787C8.35325 7.45787 8.46273 7.54142 8.52928 7.61426C8.53143 7.6164 8.53143 7.6164 8.53358 7.61854L9.71642 8.79898C9.93754 9.0175 9.71857 9.46953 9.71857 9.46953Z" fill="#111111"/>
		<path d="M6.40832 3.34028C6.97076 3.43454 7.48168 3.7002 7.88956 4.10724C8.29744 4.51429 8.56149 5.02417 8.65809 5.58546M6.4942 1.5C7.49457 1.66925 8.40694 2.1427 9.13253 2.86468C9.85813 3.58879 10.3304 4.49929 10.5 5.49762M9.71857 9.46953C9.71857 9.46953 9.17545 10.003 9.04235 10.1594C8.82553 10.3907 8.57007 10.5 8.23518 10.5C8.20298 10.5 8.16863 10.5 8.13643 10.4979C7.49885 10.4572 6.90635 10.2086 6.46198 9.99655C5.24693 9.40955 4.18 8.57617 3.2934 7.51999C2.56136 6.63949 2.07191 5.8254 1.74775 4.95132C1.54811 4.41788 1.47512 4.00226 1.50732 3.61021C1.52879 3.35956 1.62539 3.15175 1.80357 2.97393L2.5356 2.24339C2.64079 2.14485 2.75242 2.09129 2.86191 2.09129C2.99715 2.09129 3.10663 2.1727 3.17533 2.24125C3.17748 2.24339 3.17962 2.24554 3.18177 2.24768C3.31272 2.36979 3.43723 2.49619 3.56818 2.63116C3.63473 2.69971 3.70343 2.76827 3.77212 2.83897L4.35818 3.42383C4.58573 3.65092 4.58573 3.86087 4.35818 4.08795C4.29592 4.15008 4.23582 4.21221 4.17356 4.2722C3.99323 4.45644 4.13489 4.31507 3.94813 4.48217C3.94383 4.48646 3.93954 4.4886 3.93739 4.49289C3.75277 4.67713 3.78712 4.85708 3.82576 4.9792C3.82791 4.98563 3.83005 4.99205 3.8322 4.99848C3.98462 5.36696 4.19929 5.71402 4.5256 6.1275L4.52774 6.12964C5.12024 6.85804 5.74494 7.42576 6.43404 7.86065C6.52206 7.91636 6.61222 7.96135 6.69809 8.00419C6.77537 8.04275 6.84836 8.07917 6.91062 8.11774C6.9192 8.12202 6.92779 8.12845 6.93638 8.13273C7.00937 8.16915 7.07806 8.18629 7.1489 8.18629C7.32708 8.18629 7.43871 8.07489 7.47521 8.03847L7.896 7.61854C7.96898 7.5457 8.08491 7.45787 8.22015 7.45787C8.35325 7.45787 8.46273 7.54142 8.52928 7.61426C8.53143 7.6164 8.53143 7.6164 8.53358 7.61854L9.71642 8.79898C9.93754 9.0175 9.71857 9.46953 9.71857 9.46953Z" stroke="#111111" stroke-linecap="round" stroke-linejoin="round"/>
	</g>

	<g class="sprite" id="plus">
		<path d="M3 6H9" stroke="#111111" stroke-width="1.5" stroke-linecap="round"/>
		<path d="M6 3L6 9" stroke="#111111" stroke-width="1.5" stroke-linecap="round"/>
	</g>

	<g class="sprite" id="inputbutton">
		<path d="M9 7.5L6 4.5L3 7.5" stroke="#596584" stroke-width="1.5" stroke-linecap="round" stroke-linejoin="round"/>
	</g>

	<g class="sprite" id="arrowright1">
		<path d="M4 10L8 6L4 2" stroke="#596584" stroke-linecap="round" stroke-linejoin="round"/>
	</g>

	<g class="sprite" id="arrowleft2">
		<path d="M4.5 1L1.5 4L4.5 7" stroke="#596584" stroke-width="1.5" stroke-linecap="round" stroke-linejoin="round"/>
	</g>

	<g class="sprite" id="arrowright2">
		<path d="M5 9L8 6L5 3" stroke="#596584" stroke-width="1.5" stroke-linecap="round" stroke-linejoin="round"/>
	</g>

	<g class="sprite" id="arrowbottom">
		<path d="M1 1L5 5L9 1" stroke="#596584" stroke-linecap="round" stroke-linejoin="round"/>
	</g>

	<g class="sprite" id="warning">
 		<circle cx="5.99922" cy="6.0002" r="4.8" stroke="black"/>
		<path d="M6 8.40015V7.80015M6 6.30015V3.60015" stroke="black" stroke-linecap="round" stroke-linejoin="round"/>
	</g>

</svg>