<svg xmlns="http://www.w3.org/2000/svg" viewBox="0 0 16 16" fill="none">

	<defs>
		<style>
			.sprite {display: none;}
			.sprite:target {display: inline;}
		</style>
	</defs>

	<g class="sprite" id="download">
		<path d="M2.40039 10.3999V12.0999C2.40039 12.9283 3.07196 13.5999 3.90039 13.5999H12.1004C12.9288 13.5999 13.6004 12.9283 13.6004 12.0999V10.3999" stroke="#000000" stroke-width="1.5" stroke-linecap="round" stroke-linejoin="round"/>
		<path d="M4 6.3999L8 10.3999L12 6.3999" stroke="#000000" stroke-width="1.5" stroke-linecap="round" stroke-linejoin="round"/>
		<path d="M8 10.3999V2.3999" stroke="#000000" stroke-width="1.5" stroke-linecap="round" stroke-linejoin="round"/>
	</g>

	<g class="sprite" id="file">
		<path d="M9.1862 5.1974L6.2471 8.13649C5.66739 8.71621 5.61823 9.60697 6.13732 10.1261C6.6564 10.6451 7.54716 10.596 8.12688 10.0163L11.1709 6.97221C12.2724 5.87074 12.3658 4.1783 11.3795 3.19204C10.3933 2.20577 8.70083 2.29917 7.59937 3.40063L4.34537 6.65463C2.72215 8.27785 2.58452 10.772 4.03797 12.2254C5.49141 13.6789 7.98553 13.5412 9.60875 11.918L12.7578 8.76898" stroke="#111111" stroke-width="1.5" stroke-linecap="round" stroke-linejoin="round"/>
	</g>

	<g class="sprite" id="accordionarrow">
		<path d="M3 6L8 11L13 6" stroke="black" stroke-width="1.5" stroke-linecap="round" stroke-linejoin="round"/>
	</g>

	<g class="sprite" id="filedelete">
		<rect width="16" height="16" rx="8" fill="#596584"/>
		<path d="M5 5L10.9403 11" stroke="#ffffff" stroke-linecap="round"/>
		<path d="M11 5L5.0597 11" stroke="#ffffff" stroke-linecap="round"/>
	</g>

	<g class="sprite" id="plus">
		<path d="M2 8H14" stroke="#000000" stroke-width="1.5" stroke-linecap="round"/>
		<path d="M8 2L8 14" stroke="#000000" stroke-width="1.5" stroke-linecap="round"/>
	</g>

	<g class="sprite" id="minus">
		<path d="M2 8H14" stroke="#000000" stroke-width="1.5" stroke-linecap="round"/>
	</g>

	<g class="sprite" id="trash">
		<path fill-rule="evenodd" clip-rule="evenodd" d="M10.167 3H1.833C1.37295 3 1 3.37295 1 3.833V10.5C1 11.8807 2.11929 13 3.5 13H8.5C9.16304 13 9.79893 12.7366 10.2678 12.2678C10.7366 11.7989 11 11.163 11 10.5V3.833C11 3.37295 10.6271 3 10.167 3Z" stroke="#092060" stroke-linecap="round" stroke-linejoin="round"/>
		<g>
			<rect x="4" y="6" width="1" height="4" rx="0.5" fill="#092060"/>
			<rect x="7" y="6" width="1" height="4" rx="0.5" fill="#092060"/>
		</g>
		<rect x="0.5" y="0.5" width="11" height="1" rx="0.5" fill="#092060"/>
	</g>
	
	<g class="sprite" id="error">
		<circle cx="8.5" cy="8.5" r="6" fill="#E04747"/>
		<path d="M8.5 5.5V9.1M8.5 11.7V11.6098" stroke="white" stroke-width="1.5" stroke-linecap="round" stroke-linejoin="round"/>
	</g>

	<g class="sprite" id="session">
		<path d="M6.48006 13.947H3.49335C2.66859 13.947 1.99999 13.2784 2 12.4536L2.00006 4.49337C2.00006 3.6686 2.66866 3 3.49341 3H4.6136M11.707 6.48013V4.49338C11.707 3.66861 11.0384 3 10.2137 3H9.5M4.6136 7.22682H9.09365M4.6136 9.46689H6.85363M8.7202 11.888L11.8881 8.72011L14 10.8321L10.8321 14H8.7202V11.888Z" stroke="white" stroke-linecap="round" stroke-linejoin="round"/>
		<rect x="4.5" y="1.5" width="5" height="3" rx="0.5" stroke="white"/>
	</g>

	<g class="sprite" id="card">
		<path d="M9.17038 5.61993C9.17038 5.7906 9.13038 5.9466 9.05038 6.08793C8.97305 6.2266 8.85438 6.3386 8.69438 6.42393C8.53705 6.5066 8.34372 6.54793 8.11438 6.54793H7.72638V7.49993H6.94238V4.67993H8.11438C8.34105 4.67993 8.53305 4.71993 8.69038 4.79993C8.85038 4.87993 8.97038 4.9906 9.05038 5.13193C9.13038 5.27327 9.17038 5.43593 9.17038 5.61993ZM8.03838 5.92393C8.25972 5.92393 8.37038 5.8226 8.37038 5.61993C8.37038 5.4146 8.25972 5.31193 8.03838 5.31193H7.72638V5.92393H8.03838Z" fill="#092060"/>
		<path d="M6.49591 4.67993V7.49993H5.71191V4.67993H6.49591Z" fill="#092060"/>
		<path d="M5.46763 4.67993L4.49563 7.49993H3.49163L2.51562 4.67993H3.35563L3.99563 6.71593L4.63163 4.67993H5.46763Z" fill="#092060"/>
		<path d="M14.2222 13H1.77778C1.5715 13 1.37367 12.9247 1.22781 12.7908C1.08194 12.6568 1 12.4752 1 12.2857V3.71429C1 3.52485 1.08194 3.34316 1.22781 3.20921C1.37367 3.07526 1.5715 3 1.77778 3H14.2222C14.4285 3 14.6263 3.07526 14.7722 3.20921C14.9181 3.34316 15 3.52485 15 3.71429V12.2857C15 12.4752 14.9181 12.6568 14.7722 12.7908C14.6263 12.9247 14.4285 13 14.2222 13Z" stroke="#091B4D" stroke-linecap="round" stroke-linejoin="round"/>
		<path d="M14.7361 3.61744L10.6665 7.27413C9.37962 8.43044 9.33486 10.4326 10.5688 11.6453L11.872 12.9261" stroke="#091B4D"/>
	</g>

	<g class="sprite" id="menu">
		<path d="M8.9375 12H3M13 8H3M13 4H3" stroke="black" stroke-linecap="round"/>
	</g>

	<g class="sprite" id="save">
		<path d="M4.625 13.625V9.875C4.625 9.46079 4.96079 9.125 5.375 9.125H10.625C11.0392 9.125 11.375 9.46079 11.375 9.875V13.625M11.375 2.75V4.25C11.375 4.66421 11.0392 5 10.625 5L5.375 5C4.96079 5 4.625 4.66421 4.625 4.25L4.625 2M13.6234 4.62342L11.3766 2.37658C11.1355 2.13546 10.8084 2 10.4674 2H3.28571C2.57563 2 2 2.57563 2 3.28571V12.7143C2 13.4244 2.57563 14 3.28571 14H12.7143C13.4244 14 14 13.4244 14 12.7143V5.53255C14 5.19156 13.8645 4.86454 13.6234 4.62342Z" stroke="#092060" stroke-linecap="round"/>
	</g>

	<g class="sprite" id="pen">
		<path d="M7.40811 5.7497L10.2507 8.59231L5.24263 13.6004H2.40002V10.7578L7.40811 5.7497ZM13.4017 4.4893L11.5111 2.5987C11.4488 2.53586 11.3746 2.48599 11.2929 2.45195C11.2112 2.41791 11.1236 2.40039 11.0351 2.40039C10.9466 2.40039 10.859 2.41791 10.7773 2.45195C10.6956 2.48599 10.6214 2.53586 10.5591 2.5987L8.62828 4.52953L11.4709 7.37213L13.4017 5.44131C13.4646 5.37898 13.5144 5.30483 13.5485 5.22314C13.5825 5.14144 13.6 5.05381 13.6 4.9653C13.6 4.8768 13.5825 4.78917 13.5485 4.70748C13.5144 4.62578 13.4646 4.55163 13.4017 4.4893Z" stroke="#092060" stroke-linecap="round" stroke-linejoin="round"/>
	</g>
	
	<g class="sprite" id="plane">
		<path d="M11.8702 11.0615L10.2549 5.41558C10.224 5.30775 10.2541 5.19167 10.3334 5.11236L12.7215 2.72429C12.9053 2.54049 13.0054 2.28806 12.9998 2.02252C12.9942 1.75699 12.8833 1.50011 12.6916 1.30839C12.4999 1.11667 12.243 1.00582 11.9775 1.00022C11.7119 0.994624 11.4595 1.09473 11.2757 1.27853L8.88861 3.66564C8.80878 3.74546 8.69176 3.77535 8.58343 3.74358L2.87878 2.07061C2.77045 2.03884 2.65343 2.06873 2.5736 2.14856L2.01298 2.70918C1.87003 2.85212 1.90076 3.09159 2.07515 3.19382L6.32334 5.6841C6.49773 5.78633 6.52845 6.02579 6.38551 6.16873L4.32274 8.23151C4.24208 8.31217 4.12352 8.34178 4.01441 8.30851L2.15304 7.74103C2.04393 7.70776 1.92537 7.73738 1.84471 7.81803L1.09044 8.5723C0.951567 8.71118 0.975956 8.94271 1.14072 9.0496L3.3962 10.5128C3.43257 10.5364 3.46357 10.5674 3.48717 10.6038L4.9504 12.8593C5.05729 13.024 5.28882 13.0484 5.4277 12.9096L6.18193 12.1553C6.26261 12.0746 6.29221 11.9561 6.25891 11.8469L5.69109 9.98609C5.65779 9.87696 5.68739 9.75836 5.76807 9.67769L7.82971 7.61604C7.97299 7.47276 8.21311 7.50402 8.31493 7.67921L10.746 11.8621C10.8478 12.0372 11.0879 12.0685 11.2312 11.9252L11.7917 11.3647C11.871 11.2854 11.9011 11.1693 11.8702 11.0615Z" stroke="white" stroke-linejoin="round"/>
	</g>
	<g class="sprite" id="del">
		<rect width="16" height="16" rx="8" fill="#8F97B2"/>
		<path d="M5 5L10.9403 11" stroke="white" stroke-linecap="round"/>
		<path d="M11 5L5.0597 11" stroke="white" stroke-linecap="round"/>
	</g>

	<g class="sprite" id="del2">
		<path d="M10.4749 6.23223C10.6701 6.03697 10.6701 5.72039 10.4749 5.52513C10.2796 5.32986 9.96303 5.32986 9.76777 5.52513L10.4749 6.23223ZM5.52513 9.76777C5.32986 9.96303 5.32986 10.2796 5.52513 10.4749C5.72039 10.6701 6.03697 10.6701 6.23223 10.4749L5.52513 9.76777ZM9.76777 10.4749C9.96303 10.6701 10.2796 10.6701 10.4749 10.4749C10.6701 10.2796 10.6701 9.96303 10.4749 9.76777L9.76777 10.4749ZM6.23223 5.52513C6.03697 5.32986 5.72039 5.32986 5.52513 5.52513C5.32986 5.72039 5.32986 6.03697 5.52513 6.23223L6.23223 5.52513ZM13.5 8C13.5 11.0376 11.0376 13.5 8 13.5V14.5C11.5899 14.5 14.5 11.5899 14.5 8H13.5ZM8 13.5C4.96243 13.5 2.5 11.0376 2.5 8H1.5C1.5 11.5899 4.41015 14.5 8 14.5V13.5ZM2.5 8C2.5 4.96243 4.96243 2.5 8 2.5V1.5C4.41015 1.5 1.5 4.41015 1.5 8H2.5ZM8 2.5C11.0376 2.5 13.5 4.96243 13.5 8H14.5C14.5 4.41015 11.5899 1.5 8 1.5V2.5ZM9.76777 5.52513L7.64645 7.64645L8.35355 8.35355L10.4749 6.23223L9.76777 5.52513ZM7.64645 7.64645L5.52513 9.76777L6.23223 10.4749L8.35355 8.35355L7.64645 7.64645ZM10.4749 9.76777L8.35355 7.64645L7.64645 8.35355L9.76777 10.4749L10.4749 9.76777ZM8.35355 7.64645L6.23223 5.52513L5.52513 6.23223L7.64645 8.35355L8.35355 7.64645Z" fill="white"/>
	</g>

	<g class="sprite" id="receipt">
		<path d="M2.66699 3.50179C2.66699 2.67237 3.34923 2 4.1908 2H11.8098C12.6514 2 13.3337 2.67237 13.3337 3.50179V13.2332C13.3337 13.548 12.9642 13.723 12.7147 13.5263L11.6669 12.7002C11.5277 12.5905 11.33 12.5905 11.1909 12.7002L9.79039 13.8044C9.63881 13.9239 9.42029 13.912 9.28303 13.7767L8.2697 12.778C8.12093 12.6314 7.87972 12.6314 7.73095 12.778L6.74589 13.7488C6.59712 13.8955 6.35591 13.8955 6.20714 13.7488L5.17354 12.7302C5.04513 12.6036 4.84395 12.584 4.69285 12.6833L3.25926 13.6252C3.00609 13.7915 2.66699 13.6127 2.66699 13.3128V3.50179Z" stroke="#092060"/>
		<path d="M5 7.33334H6" stroke="#092060" stroke-linecap="round" stroke-linejoin="round"/>
		<path d="M10 7.33334H11" stroke="#092060" stroke-linecap="round" stroke-linejoin="round"/>
		<path d="M6 6L7 9.33333L8 6" stroke="#092060" stroke-linecap="round" stroke-linejoin="round"/>
		<path d="M10 6L9 9.33333L8 6" stroke="#092060" stroke-linecap="round" stroke-linejoin="round"/>
	</g>

	<g class="sprite" id="phone">
		<path d="M8.54442 4.45371C9.29435 4.57939 9.97558 4.93359 10.5194 5.47632C11.0633 6.01905 11.4153 6.69889 11.5441 7.44728M8.65893 2C9.99277 2.22566 11.2092 2.85694 12.1767 3.81957C13.1442 4.78505 13.7739 5.99905 14 7.33016M12.9581 12.626C12.9581 12.626 12.2339 13.3373 12.0565 13.5458C11.7674 13.8543 11.4268 14 10.9802 14C10.9373 14 10.8915 14 10.8486 13.9971C9.99847 13.9429 9.20847 13.6115 8.61597 13.3287C6.9959 12.5461 5.57333 11.4349 4.3912 10.0267C3.41515 8.85265 2.76255 7.7672 2.33034 6.60176C2.06414 5.8905 1.96682 5.33635 2.00976 4.81361C2.03838 4.47941 2.16718 4.20233 2.40476 3.96525L3.3808 2.99119C3.52106 2.85979 3.6699 2.78838 3.81588 2.78838C3.9962 2.78838 4.14218 2.89693 4.23377 2.98833C4.23664 2.99119 4.2395 2.99405 4.24236 2.9969C4.41696 3.15972 4.58297 3.32825 4.75758 3.50821C4.84631 3.59962 4.9379 3.69102 5.0295 3.78529L5.81091 4.5651C6.11431 4.86789 6.11431 5.14782 5.81091 5.45061C5.7279 5.53344 5.64775 5.61628 5.56475 5.69626C5.32431 5.94192 5.51319 5.75343 5.26417 5.97623C5.25844 5.98195 5.25272 5.9848 5.24986 5.99051C5.0037 6.23617 5.04949 6.47611 5.10102 6.63893C5.10388 6.6475 5.10674 6.65607 5.1096 6.66464C5.31283 7.15595 5.59906 7.6187 6.03413 8.17L6.03699 8.17285C6.82699 9.14405 7.65992 9.90101 8.57872 10.4809C8.69608 10.5551 8.81629 10.6151 8.93079 10.6723C9.03383 10.7237 9.13115 10.7722 9.21416 10.8236C9.22561 10.8294 9.23705 10.8379 9.2485 10.8436C9.34582 10.8922 9.43742 10.9151 9.53187 10.9151C9.76944 10.9151 9.91828 10.7665 9.96694 10.718L10.528 10.1581C10.6253 10.0609 10.7799 9.94382 10.9602 9.94382C11.1377 9.94382 11.2836 10.0552 11.3724 10.1523C11.3752 10.1552 11.3752 10.1552 11.3781 10.1581L12.9552 11.732C13.2501 12.0233 12.9581 12.626 12.9581 12.626Z" stroke="#8F97B2" stroke-linecap="round" stroke-linejoin="round"/>
	</g>

	<g class="sprite" id="usercode">
		<path d="M2 6.94445C2 4.81272 2 3.74686 2.25168 3.38828C2.50335 3.0297 3.50555 2.68665 5.50994 2.00054L5.89182 1.86982C6.93666 1.51217 7.45907 1.33334 8 1.33334C8.54093 1.33334 9.06335 1.51217 10.1082 1.86982L10.4901 2.00054C12.4945 2.68665 13.4966 3.0297 13.7483 3.38828C14 3.74686 14 4.81272 14 6.94445C14 7.26644 14 7.61562 14 7.99425C14 11.753 11.174 13.577 9.40096 14.3515C8.91999 14.5616 8.67951 14.6667 8 14.6667C7.32049 14.6667 7.08001 14.5616 6.59904 14.3515C4.82597 13.577 2 11.753 2 7.99425C2 7.61562 2 7.26644 2 6.94445Z" stroke="#8F97B2"/>
		<circle cx="8.00033" cy="5.83333" r="1.33333" stroke="#8F97B2"/>
		<path d="M10.6663 10.0333C10.6663 10.7697 10.6663 11.3667 7.99967 11.3667C5.33301 11.3667 5.33301 10.7697 5.33301 10.0333C5.33301 9.29697 6.52692 8.70001 7.99967 8.70001C9.47243 8.70001 10.6663 9.29697 10.6663 10.0333Z" stroke="#8F97B2"/>
	</g>

	<g class="sprite" id="confirmation">
		<path d="M2.66699 3.50179C2.66699 2.67237 3.34923 2 4.1908 2H11.8098C12.6514 2 13.3337 2.67237 13.3337 3.50179V13.2332C13.3337 13.548 12.9642 13.723 12.7147 13.5263L11.6669 12.7002C11.5277 12.5905 11.33 12.5905 11.1909 12.7002L9.79039 13.8044C9.63881 13.9239 9.42029 13.912 9.28303 13.7767L8.2697 12.778C8.12093 12.6314 7.87972 12.6314 7.73095 12.778L6.74589 13.7488C6.59712 13.8955 6.35591 13.8955 6.20714 13.7488L5.17354 12.7302C5.04513 12.6036 4.84395 12.584 4.69285 12.6833L3.25926 13.6252C3.00609 13.7915 2.66699 13.6127 2.66699 13.3128V3.50179Z" stroke="#092060"/>
		<path d="M5.5 7.67143L7.13265 9.5L10.6429 5.5" stroke="#092060" stroke-linecap="round" stroke-linejoin="round"/>
	</g>

	<g class="sprite" id="mail">
		<path d="M12.2876 4H3.7124C3.31895 4 3 4.30522 3 4.68173V10.9183C3 11.2948 3.31895 11.6 3.7124 11.6H12.2876C12.681 11.6 13 11.2948 13 10.9183V4.68173C13 4.30522 12.681 4 12.2876 4Z" stroke="white" stroke-linecap="round" stroke-linejoin="round"/>
		<path d="M3 11L6 8" stroke="white" stroke-linecap="round" stroke-linejoin="round"/>
		<path d="M13 11L10 8" stroke="white" stroke-linecap="round" stroke-linejoin="round"/>
		<path d="M3 4.59961L7.41799 8.59432C7.76191 8.91178 8.29101 8.91178 8.63492 8.59432L13 4.59961" stroke="white" stroke-linecap="round" stroke-linejoin="round"/>
	</g>

	<g class="sprite" id="cash">
		<rect x="2" y="2" width="12" height="12" rx="6" stroke="white"/>
		<path d="M4 8H5.5" stroke="white" stroke-linecap="round" stroke-linejoin="round"/>
		<path d="M10.5 8H12" stroke="white" stroke-linecap="round" stroke-linejoin="round"/>
		<path d="M5 6L6.5 11L8 6" stroke="white" stroke-linecap="round" stroke-linejoin="round"/>
		<path d="M11 6L9.5 11L8 6" stroke="white" stroke-linecap="round" stroke-linejoin="round"/>
	</g>

	<g class="sprite" id="inputclose">
		<rect width="16" height="16" rx="8" fill="#8F97B2"/>
		<path d="M5 5L10.9403 11" stroke="white" stroke-linecap="round"/>
		<path d="M11 5L5.0597 11" stroke="white" stroke-linecap="round"/>
	</g>

	<g class="sprite" id="receiptdetail">
		<path d="M2.66669 3.50179C2.66669 2.67237 3.34892 2 4.1905 2H11.8095C12.6511 2 13.3334 2.67237 13.3334 3.50179V13.2332C13.3334 13.548 12.9639 13.723 12.7144 13.5263L11.6666 12.7002C11.5274 12.5905 11.3297 12.5905 11.1906 12.7002L9.79008 13.8044C9.6385 13.9239 9.41999 13.912 9.28273 13.7767L8.26939 12.778C8.12062 12.6314 7.87942 12.6314 7.73065 12.778L6.74558 13.7488C6.59681 13.8955 6.35561 13.8955 6.20684 13.7488L5.17323 12.7302C5.04483 12.6036 4.84364 12.584 4.69255 12.6833L3.25895 13.6252C3.00579 13.7915 2.66669 13.6127 2.66669 13.3128V3.50179Z" stroke="#092060"/>
		<path d="M6.5 7.2998L11 7.2998" stroke="#092060" stroke-linecap="round"/>
		<path d="M6.5 4.7998H11" stroke="#092060" stroke-linecap="round"/>
		<circle cx="5" cy="4.7998" r="0.5" fill="#092060"/>
		<circle cx="5" cy="7.2998" r="0.5" fill="#092060"/>
		<circle cx="5" cy="9.7998" r="0.5" fill="#092060"/>
		<path d="M6.5 9.7998H11" stroke="#092060" stroke-linecap="round"/>
	</g>

	<g class="sprite" id="customer">
		<path id="Vector" d="M11 10.5C11 11.8807 11 13 6 13C1 13 1 11.8807 1 10.5C1 9.11929 3.23858 8 6 8C8.76142 8 11 9.11929 11 10.5Z" stroke="#8F97B2"/>
		<circle id="Vector_2" cx="6" cy="3.5" r="2.5" stroke="#8F97B2"/>
	</g>

	<g class="sprite" id="detailsearch">
		<path d="M1 2.75L8 2.75M1 8H8M8 8V9.75M8 8V6.25M1 13.25H4.5M8 13.25L15 13.25M11.5 8H15M11.5 2.75L15 2.75M11.5 2.75V4.5M11.5 2.75V1M4.9375 15V11.5" stroke="white" stroke-width="1.5" stroke-linecap="round" stroke-linejoin="round"/>
	</g>

	<g class="sprite" id="receipt">
		<path d="M2.66699 3.50179C2.66699 2.67237 3.34923 2 4.1908 2H11.8098C12.6514 2 13.3337 2.67237 13.3337 3.50179V13.2332C13.3337 13.548 12.9642 13.723 12.7147 13.5263L11.6669 12.7002C11.5277 12.5905 11.33 12.5905 11.1909 12.7002L9.79039 13.8044C9.63881 13.9239 9.42029 13.912 9.28303 13.7767L8.2697 12.778C8.12093 12.6314 7.87972 12.6314 7.73095 12.778L6.74589 13.7488C6.59712 13.8955 6.35591 13.8955 6.20714 13.7488L5.17354 12.7302C5.04513 12.6036 4.84395 12.584 4.69285 12.6833L3.25926 13.6252C3.00609 13.7915 2.66699 13.6127 2.66699 13.3128V3.50179Z" stroke="black"/>
		<path d="M5 7.33301H6" stroke="black" stroke-linecap="round" stroke-linejoin="round"/>
		<path d="M10 7.33301H11" stroke="black" stroke-linecap="round" stroke-linejoin="round"/>
		<path d="M6 6L7 9.33333L8 6" stroke="black" stroke-linecap="round" stroke-linejoin="round"/>
		<path d="M10 6L9 9.33333L8 6" stroke="black" stroke-linecap="round" stroke-linejoin="round"/>
	</g>

	<g class="sprite" id="reservationlist">
		<path d="M8.00039 14H4.00038C3.11673 14 2.40038 13.3284 2.40039 12.5L2.40045 3.5C2.40046 2.67157 3.1168 2 4.00045 2H11.2006C12.0843 2 12.8006 2.67157 12.8006 3.5V6.50001M13.6004 12.875L14.4004 13.625M5.20064 5.00001H10.0006M5.20064 7.78573H7.60064M14.0004 11.375C14.0004 12.4106 13.105 13.25 12.0004 13.25C10.8958 13.25 10.0004 12.4106 10.0004 11.375C10.0004 10.3395 10.8958 9.50002 12.0004 9.50002C13.105 9.50002 14.0004 10.3395 14.0004 11.375Z" stroke="white" stroke-linecap="round" stroke-linejoin="round"/>
	</g>

	<g class="sprite" id="leaderboard">
		<path d="M5 1C5 0.723858 5.22386 0.5 5.5 0.5H8.5C8.77614 0.5 9 0.723858 9 1V11.5H5V1Z" stroke="white"/>
		<path d="M1 8C1 7.72386 1.22386 7.5 1.5 7.5H4.5C4.77614 7.5 5 7.72386 5 8V11.5H1V8Z" stroke="white"/>
		<path d="M9 5C9 4.72386 9.22386 4.5 9.5 4.5H12.5C12.7761 4.5 13 4.72386 13 5V11.5H9V5Z" stroke="white"/>
	</g>

	<g class="sprite" id="prospective">
		<path d="M11.7766 6.94605L11.9075 6.46348L11.7766 6.94605ZM12.0434 7.20744L12.5299 7.09179L12.0434 7.20744ZM8.5103 3.28176L8.67946 2.81125L8.5103 3.28176ZM8.74141 3.57443L8.24717 3.65009L8.74141 3.57443ZM13.4739 1C13.4739 0.723858 13.25 0.5 12.9739 0.5C12.6977 0.5 12.4739 0.723858 12.4739 1H13.4739ZM12.4739 5.08608C12.4739 5.36223 12.6977 5.58608 12.9739 5.58608C13.25 5.58608 13.4739 5.36223 13.4739 5.08608H12.4739ZM10.9121 2.55211C10.6359 2.55211 10.4121 2.77596 10.4121 3.05211C10.4121 3.32825 10.6359 3.55211 10.9121 3.55211V2.55211ZM15 3.55211C15.2761 3.55211 15.5 3.32825 15.5 3.05211C15.5 2.77596 15.2761 2.55211 15 2.55211V3.55211ZM5.14302 9.30776C4.99654 9.07367 4.68803 9.00264 4.45394 9.14912C4.21985 9.2956 4.14882 9.60411 4.2953 9.8382L5.14302 9.30776ZM9.16824 9.8382C9.31471 9.60411 9.24369 9.2956 9.0096 9.14912C8.7755 9.00264 8.46699 9.07367 8.32051 9.30776L9.16824 9.8382ZM4.96407 6.53583V6.03583C4.68793 6.03583 4.46407 6.25969 4.46407 6.53583H4.96407ZM5.0219 6.53583H5.5219C5.5219 6.25969 5.29804 6.03583 5.0219 6.03583V6.53583ZM8.44738 6.53583V6.03583C8.17124 6.03583 7.94738 6.25969 7.94738 6.53583H8.44738ZM8.49879 6.53583H8.99879C8.99879 6.25969 8.77493 6.03583 8.49879 6.03583V6.53583ZM5.0219 6.58182V7.08182C5.29804 7.08182 5.5219 6.85797 5.5219 6.58182H5.0219ZM4.96407 6.58182H4.46407C4.46407 6.85797 4.68793 7.08182 4.96407 7.08182V6.58182ZM8.49879 6.58182V7.08182C8.77493 7.08182 8.99879 6.85797 8.99879 6.58182H8.49879ZM8.44738 6.58182H7.94738C7.94738 6.85797 8.17124 7.08182 8.44738 7.08182V6.58182ZM8.67946 2.81125C8.0286 2.57725 7.3266 2.44988 6.59568 2.44988V3.44988C7.20978 3.44988 7.79739 3.55679 8.34114 3.75228L8.67946 2.81125ZM11.9075 6.46348C10.5141 6.08559 9.45398 4.9248 9.23565 3.49876L8.24717 3.65009C8.52696 5.47755 9.88058 6.94989 11.6458 7.42862L11.9075 6.46348ZM12.6914 8.47494C12.6914 7.99954 12.6356 7.53639 12.5299 7.09179L11.557 7.32308C11.6448 7.6925 11.6914 8.07804 11.6914 8.47494H12.6914ZM6.59568 14.5C9.95622 14.5 12.6914 11.8085 12.6914 8.47494H11.6914C11.6914 11.2442 9.41595 13.5 6.59568 13.5V14.5ZM0.5 8.47494C0.5 11.8085 3.23513 14.5 6.59568 14.5V13.5C3.77541 13.5 1.5 11.2442 1.5 8.47494H0.5ZM6.59568 2.44988C3.23513 2.44988 0.5 5.14142 0.5 8.47494H1.5C1.5 5.70564 3.77541 3.44988 6.59568 3.44988V2.44988ZM11.6458 7.42862C11.6267 7.42345 11.5748 7.3982 11.557 7.32308L12.5299 7.09179C12.4504 6.75751 12.1861 6.53905 11.9075 6.46348L11.6458 7.42862ZM8.34114 3.75228C8.27319 3.72785 8.25109 3.67566 8.24717 3.65009L9.23565 3.49876C9.19145 3.21003 9.00028 2.92659 8.67946 2.81125L8.34114 3.75228ZM12.4739 1V5.08608H13.4739V1H12.4739ZM10.9121 3.55211H15V2.55211H10.9121V3.55211ZM6.73177 10.1982C6.06779 10.1982 5.48025 9.84671 5.14302 9.30776L4.2953 9.8382C4.80463 10.6522 5.7035 11.1982 6.73177 11.1982V10.1982ZM8.32051 9.30776C7.98328 9.84671 7.39575 10.1982 6.73177 10.1982V11.1982C7.76004 11.1982 8.6589 10.6522 9.16824 9.8382L8.32051 9.30776ZM4.96407 7.03583H5.0219V6.03583H4.96407V7.03583ZM8.44738 7.03583H8.49879V6.03583H8.44738V7.03583ZM4.5219 6.53583V6.58182H5.5219V6.53583H4.5219ZM5.0219 6.08182H4.96407V7.08182H5.0219V6.08182ZM5.46407 6.58182V6.53583H4.46407V6.58182H5.46407ZM7.99879 6.53583V6.58182H8.99879V6.53583H7.99879ZM8.49879 6.08182H8.44738V7.08182H8.49879V6.08182ZM8.94738 6.58182V6.53583H7.94738V6.58182H8.94738Z" fill="#092060"/>
	</g>

	<g class="sprite" id="standby">
		<path id="primary" d="M4 14H12M13.3333 11.3333H2.66667C2.48986 11.3333 2.32029 11.2631 2.19526 11.1381C2.07024 11.013 2 10.8435 2 10.6667V2.66667C2 2.48986 2.07024 2.32029 2.19526 2.19526C2.32029 2.07024 2.48986 2 2.66667 2H13.3333C13.5101 2 13.6797 2.07024 13.8047 2.19526C13.9298 2.32029 14 2.48986 14 2.66667V10.6667C14 10.8435 13.9298 11.013 13.8047 11.1381C13.6797 11.2631 13.5101 11.3333 13.3333 11.3333Z" stroke="white" stroke-linecap="round" stroke-linejoin="round"/>
		<circle cx="5" cy="6" r="1" fill="#ffffff"/>
		<circle cx="8" cy="6" r="1" fill="#ffffff"/>
		<circle cx="11" cy="6" r="1" fill="#ffffff"/>
	</g>

	<g class="sprite" id="percent">
		<path d="M2 14L14 2.04866M10.3855 12.0974C10.3855 13.0815 11.1866 13.8793 12.1747 13.8793C13.1628 13.8793 13.9638 13.0815 13.9638 12.0974C13.9638 11.1133 13.1628 10.3155 12.1747 10.3155C11.1866 10.3155 10.3855 11.1133 10.3855 12.0974ZM2.03618 3.78189C2.03618 4.766 2.83721 5.56379 3.82532 5.56379C4.81344 5.56379 5.61447 4.766 5.61447 3.78189C5.61447 2.79778 4.81344 2 3.82532 2C2.83721 2 2.03618 2.79778 2.03618 3.78189Z" stroke="#E7EBF6" stroke-width="1.5" stroke-linecap="round"/>
	</g>

	<g class="sprite" id="hole">
		<circle cx="8" cy="8" r="7" fill="#4673FF"/>
		<path fill-rule="evenodd" clip-rule="evenodd" d="M6.19995 9.25782H11.0609C11.347 9.25782 11.4707 8.89537 11.2443 8.72043L9.36281 7.26669C9.20737 7.1466 9.20737 6.912 9.36281 6.79191L11.2443 5.33817C11.4707 5.16323 11.347 4.80078 11.0609 4.80078H5.69995V4.80088C5.42381 4.80088 5.19995 5.02474 5.19995 5.30088V12.3009C5.19995 12.577 5.42381 12.8009 5.69995 12.8009C5.97609 12.8009 6.19995 12.577 6.19995 12.3009V9.25782Z" fill="white"/>	
	</g>


	<g class="sprite" id="hole2">
		<path d="M6.39665 9.38017L6.34493 8.88285C6.16285 8.90178 6.00567 9.01871 5.93519 9.18766C5.86471 9.35662 5.89219 9.55058 6.00684 9.6933L6.39665 9.38017ZM2.17986 10.6693L2.67529 10.6019C2.65197 10.4306 2.5419 10.2836 2.3842 10.213C2.22649 10.1424 2.0435 10.1582 1.90025 10.2548L2.17986 10.6693ZM6.28574 10.4498C6.28574 11.1555 5.56444 11.8751 4.47538 11.8751V12.8751C5.93827 12.8751 7.28574 11.8708 7.28574 10.4498H6.28574ZM6.00684 9.6933C6.18868 9.91966 6.28574 10.1792 6.28574 10.4498H7.28574C7.28574 9.92887 7.09615 9.45256 6.78645 9.06703L6.00684 9.6933ZM6.44836 9.87748C6.96646 9.82361 7.50932 9.79492 8.06892 9.79492V8.79492C7.47535 8.79492 6.89796 8.82534 6.34493 8.88285L6.44836 9.87748ZM8.06892 9.79492C9.93296 9.79492 11.597 10.113 12.7764 10.6081C13.3672 10.856 13.8128 11.1386 14.1031 11.4267C14.3916 11.713 14.5 11.9754 14.5 12.2043H15.5C15.5 11.6297 15.2205 11.1268 14.8075 10.7169C14.3964 10.3089 13.827 9.96454 13.1635 9.68602C11.8343 9.1281 10.0328 8.79492 8.06892 8.79492V9.79492ZM14.5 12.2043C14.5 12.4331 14.3916 12.6955 14.1031 12.9818C13.8128 13.27 13.3672 13.5525 12.7764 13.8005C11.597 14.2955 9.93296 14.6136 8.06892 14.6136V15.6136C10.0328 15.6136 11.8343 15.2804 13.1635 14.7225C13.827 14.444 14.3964 14.0996 14.8075 13.6916C15.2205 13.2818 15.5 12.7788 15.5 12.2043H14.5ZM8.06892 14.6136C6.20487 14.6136 4.54082 14.2955 3.36141 13.8005C2.77066 13.5525 2.32507 13.27 2.0347 12.9818C1.7462 12.6955 1.63782 12.4331 1.63782 12.2043H0.637817C0.637817 12.7788 0.917331 13.2818 1.33029 13.6916C1.74139 14.0996 2.31083 14.444 2.97437 14.7225C4.30352 15.2804 6.10502 15.6136 8.06892 15.6136V14.6136ZM1.63782 12.2043C1.63782 11.8848 1.85654 11.4905 2.45947 11.0838L1.90025 10.2548C1.18215 10.7392 0.637817 11.3969 0.637817 12.2043H1.63782ZM4.47538 11.8751C3.46948 11.8751 2.76372 11.2512 2.67529 10.6019L1.68443 10.7368C1.85745 12.0073 3.10744 12.8751 4.47538 12.8751V11.8751Z" fill="#092060"/>
		<rect x="10" y="11" width="2" height="2" rx="1" fill="#092060"/>
		<path d="M4.44916 10.5266L4.44916 1.28516" stroke="#092060" stroke-miterlimit="10" stroke-linecap="round" stroke-linejoin="round"/>
		<path d="M4.44916 1.13086L10.2405 3.68767L4.44916 6.21367V1.13086Z" stroke="#092060" stroke-miterlimit="10" stroke-linecap="round" stroke-linejoin="round"/>
	</g>

	<g class="sprite" id="letter">
		<path d="M12.1451 1H1.85488C1.38274 1 1 1.36626 1 1.81807V9.30193C1 9.75374 1.38274 10.12 1.85488 10.12H12.1451C12.6173 10.12 13 9.75374 13 9.30193V1.81807C13 1.36626 12.6173 1 12.1451 1Z" stroke="#8F97B2" stroke-linecap="round" stroke-linejoin="round"/>
		<path d="M1 9.39981L4.6 5.7998" stroke="#8F97B2" stroke-linecap="round" stroke-linejoin="round"/>
		<path d="M13.0001 9.3998L9.40015 5.7998" stroke="#8F97B2" stroke-linecap="round" stroke-linejoin="round"/>
		<path d="M1 1.71973L6.30159 6.51338C6.71429 6.89433 7.34921 6.89433 7.76191 6.51338L13 1.71973" stroke="#8F97B2" stroke-linecap="round" stroke-linejoin="round"/>
	</g>

	<g class="sprite" id="percent">
		<path d="M11.2778 14C9.77434 14 8.55556 12.7812 8.55556 11.2778C8.55556 9.77433 9.77434 8.55555 11.2778 8.55555C12.7812 8.55555 14 9.77433 14 11.2778C14 12.7812 12.7812 14 11.2778 14ZM11.2778 12.4444C11.9221 12.4444 12.4444 11.9222 12.4444 11.2778C12.4444 10.6335 11.9221 10.1111 11.2778 10.1111C10.6335 10.1111 10.1111 10.6335 10.1111 11.2778C10.1111 11.9222 10.6335 12.4444 11.2778 12.4444ZM2.72222 5.44443C1.21878 5.44443 0 4.22567 0 2.72223C0 1.21878 1.21878 0 2.72222 0C4.22566 0 5.44445 1.21878 5.44445 2.72223C5.44445 4.22567 4.22566 5.44443 2.72222 5.44443ZM2.72222 3.8889C3.36655 3.8889 3.88888 3.36656 3.88888 2.72223C3.88888 2.07789 3.36655 1.55556 2.72222 1.55556C2.07789 1.55556 1.55555 2.07789 1.55555 2.72223C1.55555 3.36656 2.07789 3.8889 2.72222 3.8889ZM12.4997 0.400338L13.5997 1.50028L1.50028 13.5997L0.400337 12.4997L12.4997 0.400338Z" fill="#2550D8"/>
	</g>

	<g class="sprite" id="phone2">
		<path d="M8.54442 4.45371C9.29435 4.57939 9.97558 4.93359 10.5194 5.47632C11.0633 6.01905 11.4153 6.69889 11.5441 7.44728M8.65893 2C9.99277 2.22566 11.2092 2.85694 12.1767 3.81957C13.1442 4.78505 13.7739 5.99905 14 7.33016M12.9581 12.626C12.9581 12.626 12.2339 13.3373 12.0565 13.5458C11.7674 13.8543 11.4268 14 10.9802 14C10.9373 14 10.8915 14 10.8486 13.9971C9.99847 13.9429 9.20847 13.6115 8.61597 13.3287C6.9959 12.5461 5.57333 11.4349 4.3912 10.0267C3.41515 8.85265 2.76255 7.7672 2.33034 6.60176C2.06414 5.8905 1.96682 5.33635 2.00976 4.81361C2.03838 4.47941 2.16718 4.20233 2.40476 3.96525L3.3808 2.99119C3.52106 2.85979 3.6699 2.78838 3.81588 2.78838C3.9962 2.78838 4.14218 2.89693 4.23377 2.98833C4.23664 2.99119 4.2395 2.99405 4.24236 2.9969C4.41696 3.15972 4.58297 3.32825 4.75758 3.50821C4.84631 3.59962 4.9379 3.69102 5.0295 3.78529L5.81091 4.5651C6.11431 4.86789 6.11431 5.14782 5.81091 5.45061C5.7279 5.53344 5.64775 5.61628 5.56475 5.69626C5.32431 5.94192 5.51319 5.75343 5.26417 5.97623C5.25844 5.98195 5.25272 5.9848 5.24986 5.99051C5.0037 6.23617 5.04949 6.47611 5.10102 6.63893C5.10388 6.6475 5.10674 6.65607 5.1096 6.66464C5.31283 7.15595 5.59906 7.6187 6.03413 8.17L6.03699 8.17285C6.82699 9.14405 7.65992 9.90101 8.57872 10.4809C8.69608 10.5551 8.81629 10.6151 8.93079 10.6723C9.03383 10.7237 9.13115 10.7722 9.21416 10.8236C9.22561 10.8294 9.23705 10.8379 9.2485 10.8436C9.34582 10.8922 9.43742 10.9151 9.53187 10.9151C9.76944 10.9151 9.91828 10.7665 9.96694 10.718L10.528 10.1581C10.6253 10.0609 10.7799 9.94382 10.9602 9.94382C11.1377 9.94382 11.2836 10.0552 11.3724 10.1523C11.3752 10.1552 11.3752 10.1552 11.3781 10.1581L12.9552 11.732C13.2501 12.0233 12.9581 12.626 12.9581 12.626Z" stroke="#8F97B2" stroke-linecap="round" stroke-linejoin="round"/>
	</g>

	<g class="sprite" id="document">
		<path d="M4.66659 3.33203H4.33325C3.78097 3.33203 3.33325 3.77975 3.33325 4.33203V12.9987C3.33325 13.551 3.78097 13.9987 4.33325 13.9987H11.6666C12.2189 13.9987 12.6666 13.551 12.6666 12.9987V4.33203C12.6666 3.77975 12.2189 3.33203 11.6666 3.33203H11.3333" stroke="black" stroke-linecap="round" stroke-linejoin="round"/>
		<path d="M6.33333 2H9.66667C10.4 2 11 2.6 11 3.33333V4H8H5V3.33333C5 2.6 5.6 2 6.33333 2Z" stroke="black" stroke-linecap="round" stroke-linejoin="round"/>
		<path d="M5.6665 8.94907L7.44351 10.6654L10.3332 7.33203" stroke="black" stroke-linecap="round" stroke-linejoin="round"/>
	</g>

	<g class="sprite" id="reservation">
		<path d="M6.9999 13H2.9999C2.11624 13 1.3999 12.3284 1.3999 11.5L1.39996 2.5C1.39997 1.67157 2.11631 1 2.99996 1H10.2001C11.0838 1 11.8001 1.67157 11.8001 2.5V5.50001M12.5999 11.875L13.3999 12.625M4.20015 4.00001H9.00015M4.20015 6.78573H6.60015M12.9999 10.375C12.9999 11.4106 12.1045 12.25 10.9999 12.25C9.89533 12.25 8.9999 11.4106 8.9999 10.375C8.9999 9.33949 9.89533 8.50002 10.9999 8.50002C12.1045 8.50002 12.9999 9.33949 12.9999 10.375Z" stroke="white" stroke-linecap="round" stroke-linejoin="round"/>
	</g>

	<g class="sprite" id="close">
		<path d="M3 3L13 13" stroke="black" stroke-width="1.5" stroke-linecap="round"/>
		<path d="M13 3L3 13" stroke="black" stroke-width="1.5" stroke-linecap="round"/>
	</g>

	<g class="sprite" id="saveprice">
		<path d="M14 8C14 11.3137 11.3137 14 8 14C4.68629 14 2 11.3137 2 8C2 4.68629 4.68629 2 8 2C11.3137 2 14 4.68629 14 8Z" stroke="white" stroke-linecap="round" stroke-linejoin="round"/>
		<path d="M5 7.94045L7.28472 10L11 6" stroke="white" stroke-linecap="round" stroke-linejoin="round"/>
	</g>

	<g class="sprite" id="rightangle">
		<path d="M7 3V9H13" stroke="#596584" stroke-linecap="square"/>
	</g>

	<g class="sprite" id="arrowright">
		<path d="M6 13L11 8L6 3" stroke="white" stroke-width="1.5" stroke-linecap="round" stroke-linejoin="round"/>
	</g>

	<g class="sprite" id="arrowbottom">
		<path d="M3 6L8 11L13 6" stroke="#8F97B2" stroke-width="1.5" stroke-linecap="round" stroke-linejoin="round"/>
	</g>

	<g class="sprite" id="refresh">
		<path d="M12.9903 9.74844C12.2777 11.9842 10.2369 13.5984 7.8304 13.5984C4.83133 13.5984 2.4001 11.0912 2.4001 7.99844C2.4001 4.90564 4.83133 2.39844 7.8304 2.39844C9.84038 2.39844 11.5953 3.52459 12.5342 5.19844M10.8849 5.89844H13.6001V3.09844" stroke="black" stroke-linecap="round" stroke-linejoin="round"/>
	</g>

	
	<g class="sprite" id="inquire">
		<g id="Group 37417">
		<path id="Rectangle 2064" d="M2.625 0.5H11.375C12.5651 0.5 13.5 1.42747 13.5 2.53528V7.60584C13.5 8.71365 12.5651 9.64112 11.375 9.64112H8.96027C8.6821 9.64112 8.4139 9.76307 8.23358 9.98076L7 11.47L5.76642 9.98076C5.5861 9.76307 5.3179 9.64112 5.03973 9.64112H2.625C1.43486 9.64112 0.5 8.71365 0.5 7.60584V2.53528C0.5 1.42747 1.43486 0.5 2.625 0.5Z" stroke="#092060"/>
		<g id="Group 37418">
		<circle id="Ellipse 2167" cx="3.5" cy="5.25" r="0.75" fill="#092060"/>
		<circle id="Ellipse 2168" cx="7" cy="5.25" r="0.75" fill="#092060"/>
		<circle id="Ellipse 2169" cx="10.5" cy="5.25" r="0.75" fill="#092060"/>
		</g>
		</g>
	</g>

	<g class="sprite" id="exmark">
		<circle cx="8.5" cy="8" r="6" fill="#E04747"/>
		<path d="M8.5 5V8.6M8.5 11.2V11.1098" stroke="white" stroke-width="1.5" stroke-linecap="round" stroke-linejoin="round"/>
	</g>

	<g class="sprite" id="listallview">
		<path d="M6.9375 11H3M11 7H3M13 3H3" stroke="white" stroke-linecap="round"/>
		<path d="M13.1996 13.1L13.9996 13.9M13.5996 11.5C13.5996 12.6046 12.7042 13.5 11.5996 13.5C10.495 13.5 9.59961 12.6046 9.59961 11.5C9.59961 10.3954 10.495 9.5 11.5996 9.5C12.7042 9.5 13.5996 10.3954 13.5996 11.5Z" stroke="white" stroke-linecap="round" stroke-linejoin="round"/>
	</g>

	<g class="sprite" id="useradd">
		<g filter="url(#filter0_d_18932_41400)">
			<path d="M15.7766 6.94605L15.9075 6.46348L15.7766 6.94605ZM16.0434 7.20744L16.5299 7.09179L16.0434 7.20744ZM12.5103 3.28176L12.6795 2.81125L12.5103 3.28176ZM12.7414 3.57443L12.2472 3.65009L12.7414 3.57443ZM17.4739 1C17.4739 0.723858 17.25 0.5 16.9739 0.5C16.6977 0.5 16.4739 0.723858 16.4739 1H17.4739ZM16.4739 5.08608C16.4739 5.36223 16.6977 5.58608 16.9739 5.58608C17.25 5.58608 17.4739 5.36223 17.4739 5.08608H16.4739ZM14.9121 2.55211C14.6359 2.55211 14.4121 2.77596 14.4121 3.05211C14.4121 3.32825 14.6359 3.55211 14.9121 3.55211V2.55211ZM19 3.55211C19.2761 3.55211 19.5 3.32825 19.5 3.05211C19.5 2.77596 19.2761 2.55211 19 2.55211V3.55211ZM9.14302 9.30776C8.99654 9.07367 8.68803 9.00264 8.45394 9.14912C8.21985 9.2956 8.14882 9.60411 8.2953 9.8382L9.14302 9.30776ZM13.1682 9.8382C13.3147 9.60411 13.2437 9.2956 13.0096 9.14912C12.7755 9.00264 12.467 9.07367 12.3205 9.30776L13.1682 9.8382ZM8.96407 6.53583V6.03583C8.68793 6.03583 8.46407 6.25969 8.46407 6.53583H8.96407ZM9.0219 6.53583H9.5219C9.5219 6.25969 9.29804 6.03583 9.0219 6.03583V6.53583ZM12.4474 6.53583V6.03583C12.1712 6.03583 11.9474 6.25969 11.9474 6.53583H12.4474ZM12.4988 6.53583H12.9988C12.9988 6.25969 12.7749 6.03583 12.4988 6.03583V6.53583ZM9.0219 6.58182V7.08182C9.29804 7.08182 9.5219 6.85797 9.5219 6.58182H9.0219ZM8.96407 6.58182H8.46407C8.46407 6.85797 8.68793 7.08182 8.96407 7.08182V6.58182ZM12.4988 6.58182V7.08182C12.7749 7.08182 12.9988 6.85797 12.9988 6.58182H12.4988ZM12.4474 6.58182H11.9474C11.9474 6.85797 12.1712 7.08182 12.4474 7.08182V6.58182ZM12.6795 2.81125C12.0286 2.57725 11.3266 2.44988 10.5957 2.44988V3.44988C11.2098 3.44988 11.7974 3.55679 12.3411 3.75228L12.6795 2.81125ZM15.9075 6.46348C14.5141 6.08559 13.454 4.9248 13.2357 3.49876L12.2472 3.65009C12.527 5.47755 13.8806 6.94989 15.6458 7.42862L15.9075 6.46348ZM16.6914 8.47494C16.6914 7.99954 16.6356 7.53639 16.5299 7.09179L15.557 7.32308C15.6448 7.6925 15.6914 8.07804 15.6914 8.47494H16.6914ZM10.5957 14.5C13.9562 14.5 16.6914 11.8085 16.6914 8.47494H15.6914C15.6914 11.2442 13.416 13.5 10.5957 13.5V14.5ZM4.5 8.47494C4.5 11.8085 7.23513 14.5 10.5957 14.5V13.5C7.77541 13.5 5.5 11.2442 5.5 8.47494H4.5ZM10.5957 2.44988C7.23513 2.44988 4.5 5.14142 4.5 8.47494H5.5C5.5 5.70564 7.77541 3.44988 10.5957 3.44988V2.44988ZM15.6458 7.42862C15.6267 7.42345 15.5748 7.3982 15.557 7.32308L16.5299 7.09179C16.4504 6.75751 16.1861 6.53905 15.9075 6.46348L15.6458 7.42862ZM12.3411 3.75228C12.2732 3.72785 12.2511 3.67566 12.2472 3.65009L13.2357 3.49876C13.1915 3.21003 13.0003 2.92659 12.6795 2.81125L12.3411 3.75228ZM16.4739 1V5.08608H17.4739V1H16.4739ZM14.9121 3.55211H19V2.55211H14.9121V3.55211ZM10.7318 10.1982C10.0678 10.1982 9.48025 9.84671 9.14302 9.30776L8.2953 9.8382C8.80463 10.6522 9.7035 11.1982 10.7318 11.1982V10.1982ZM12.3205 9.30776C11.9833 9.84671 11.3957 10.1982 10.7318 10.1982V11.1982C11.76 11.1982 12.6589 10.6522 13.1682 9.8382L12.3205 9.30776ZM8.96407 7.03583H9.0219V6.03583H8.96407V7.03583ZM12.4474 7.03583H12.4988V6.03583H12.4474V7.03583ZM8.5219 6.53583V6.58182H9.5219V6.53583H8.5219ZM9.0219 6.08182H8.96407V7.08182H9.0219V6.08182ZM9.46407 6.58182V6.53583H8.46407V6.58182H9.46407ZM11.9988 6.53583V6.58182H12.9988V6.53583H11.9988ZM12.4988 6.08182H12.4474V7.08182H12.4988V6.08182ZM12.9474 6.58182V6.53583H11.9474V6.58182H12.9474Z" fill="#596584"/>
		</g>
		<defs>
			<filter id="filter0_d_18932_41400" x="0.5" y="0.5" width="23" height="22" filterUnits="userSpaceOnUse" color-interpolation-filters="sRGB">
			<feFlood flood-opacity="0" result="BackgroundImageFix"/>
			<feColorMatrix in="SourceAlpha" type="matrix" values="0 0 0 0 0 0 0 0 0 0 0 0 0 0 0 0 0 0 127 0" result="hardAlpha"/>
			<feOffset dy="4"/>
			<feGaussianBlur stdDeviation="2"/>
			<feComposite in2="hardAlpha" operator="out"/>
			<feColorMatrix type="matrix" values="0 0 0 0 0 0 0 0 0 0 0 0 0 0 0 0 0 0 0.25 0"/>
			<feBlend mode="normal" in2="BackgroundImageFix" result="effect1_dropShadow_18932_41400"/>
			<feBlend mode="normal" in="SourceGraphic" in2="effect1_dropShadow_18932_41400" result="shape"/>
			</filter>
		</defs>
	</g>

	<g class="sprite" id="arrowright2">
		<path d="M5 13L10 8L5 3" stroke="#8F97B2" stroke-width="1.5" stroke-linecap="round" stroke-linejoin="round"/>
	</g>
</svg>