<svg width="48" height="60" viewBox="0 0 48 60" fill="none" xmlns="http://www.w3.org/2000/svg">
<g id="click img">
<g id="Group 37374">
<g id="Group 1">
<path id="Vector" d="M17 35C17 33.343 15.657 32 14 32C12.343 32 11 33.343 11 35V42C11 50.284 17.716 57 26 57C34.284 57 41 50.284 41 42V35C41 33.343 39.657 32 38 32C36.343 32 35 33.343 35 35V33C35 31.343 33.657 30 32 30C30.343 30 29 31.343 29 33V31C29 29.343 27.657 28 26 28C24.343 28 23 29.343 23 31V19C23 17.343 21.657 16 20 16C18.343 16 17 17.343 17 19V41V35Z" fill="#7a7a7a" fill-opacity="1" stroke="white" stroke-width="1.5" stroke-miterlimit="10" stroke-linecap="round" stroke-linejoin="round"/>
</g>
</g>
</g>

</svg>
